<svg width="16" height="16" viewBox="0 0 16 16" fill="none" xmlns="http://www.w3.org/2000/svg">
<path fill-rule="evenodd" clip-rule="evenodd" d="M4.66671 1.16666C4.94285 1.16666 5.16671 1.39052 5.16671 1.66666V2.17514C5.60806 2.16666 6.09431 2.16666 6.6291 2.16666H9.37099C9.90577 2.16666 10.392 2.16666 10.8334 2.17514V1.66666C10.8334 1.39052 11.0572 1.16666 11.3334 1.16666C11.6095 1.16666 11.8334 1.39052 11.8334 1.66666V2.21806C12.0067 2.23127 12.1708 2.24788 12.3261 2.26875C13.1077 2.37384 13.7403 2.59525 14.2392 3.09416C14.7381 3.59307 14.9595 4.2257 15.0646 5.00732C15.0982 5.25711 15.1207 5.52972 15.1359 5.82671C15.1558 5.8807 15.1667 5.93907 15.1667 6C15.1667 6.04621 15.1604 6.09096 15.1487 6.13344C15.1667 6.66809 15.1667 7.27516 15.1667 7.96239V9.37094C15.1667 10.5961 15.1667 11.5665 15.0646 12.326C14.9595 13.1076 14.7381 13.7403 14.2392 14.2392C13.7403 14.7381 13.1077 14.9595 12.3261 15.0646C11.5666 15.1667 10.5962 15.1667 9.37098 15.1667H6.6291C5.40393 15.1667 4.4335 15.1667 3.67403 15.0646C2.89241 14.9595 2.25978 14.7381 1.76087 14.2392C1.26196 13.7403 1.04055 13.1076 0.935464 12.326C0.833355 11.5665 0.833364 10.5961 0.833374 9.37094V7.96239C0.833368 7.27516 0.833363 6.66809 0.85138 6.13344C0.839644 6.09096 0.833374 6.04621 0.833374 6C0.833374 5.93907 0.84427 5.8807 0.86422 5.82671C0.879343 5.52972 0.901881 5.25711 0.935464 5.00732C1.04055 4.2257 1.26196 3.59307 1.76087 3.09416C2.25978 2.59525 2.89241 2.37384 3.67403 2.26875C3.82931 2.24788 3.99341 2.23127 4.16671 2.21806V1.66666C4.16671 1.39052 4.39057 1.16666 4.66671 1.16666ZM1.8421 6.5C1.83359 6.93515 1.83337 7.43065 1.83337 8V9.33333C1.83337 10.6045 1.83444 11.5077 1.92655 12.1928C2.01672 12.8635 2.18584 13.2499 2.46798 13.5321C2.75012 13.8142 3.13655 13.9833 3.80727 14.0735C4.49238 14.1656 5.39549 14.1667 6.66671 14.1667H9.33337C10.6046 14.1667 11.5077 14.1656 12.1928 14.0735C12.8635 13.9833 13.25 13.8142 13.5321 13.5321C13.8142 13.2499 13.9834 12.8635 14.0735 12.1928C14.1656 11.5077 14.1667 10.6045 14.1667 9.33333V8C14.1667 7.43065 14.1665 6.93515 14.158 6.5H1.8421ZM14.1123 5.5H1.88783C1.89851 5.37374 1.91128 5.25415 1.92655 5.14056C2.01672 4.46984 2.18584 4.08341 2.46798 3.80127C2.75012 3.51913 3.13655 3.35001 3.80727 3.25984C4.49238 3.16773 5.39549 3.16666 6.66671 3.16666H9.33337C10.6046 3.16666 11.5077 3.16773 12.1928 3.25984C12.8635 3.35001 13.25 3.51913 13.5321 3.80127C13.8142 4.08341 13.9834 4.46984 14.0735 5.14056C14.0888 5.25415 14.1016 5.37374 14.1123 5.5ZM11 10.5C10.7239 10.5 10.5 10.7239 10.5 11C10.5 11.2761 10.7239 11.5 11 11.5C11.2762 11.5 11.5 11.2761 11.5 11C11.5 10.7239 11.2762 10.5 11 10.5ZM9.50004 11C9.50004 10.1716 10.1716 9.5 11 9.5C11.8285 9.5 12.5 10.1716 12.5 11C12.5 11.8284 11.8285 12.5 11 12.5C10.1716 12.5 9.50004 11.8284 9.50004 11Z" fill="#828DA9"/>
</svg>
