<svg width="48" height="48" viewBox="0 0 48 48" fill="none" xmlns="http://www.w3.org/2000/svg">
<path fill-rule="evenodd" clip-rule="evenodd" d="M30.408 6H17.592L14.808 10.5H3V39H45V10.5H33.192L30.408 6ZM24 15C21.6131 15 19.3239 15.9482 17.636 17.636C15.9482 19.3239 15 21.6131 15 24C15 26.3869 15.9482 28.6761 17.636 30.364C19.3239 32.0518 21.6131 33 24 33C26.3869 33 28.6761 32.0518 30.364 30.364C32.0518 28.6761 33 26.3869 33 24C33 21.6131 32.0518 19.3239 30.364 17.636C28.6761 15.9482 26.3869 15 24 15Z" fill="#B1C6BF"/>
<path d="M28.5 24C28.5 25.1935 28.0259 26.3381 27.182 27.182C26.3381 28.0259 25.1935 28.5 24 28.5C22.8065 28.5 21.6619 28.0259 20.818 27.182C19.9741 26.3381 19.5 25.1935 19.5 24C19.5 22.8065 19.9741 21.6619 20.818 20.818C21.6619 19.9741 22.8065 19.5 24 19.5C25.1935 19.5 26.3381 19.9741 27.182 20.818C28.0259 21.6619 28.5 22.8065 28.5 24Z" fill="#B1C6BF"/>
</svg>
