<svg width="10" height="10" viewBox="0 0 10 10" fill="none" xmlns="http://www.w3.org/2000/svg">
<g clip-path="url(#clip0_2221_148)">
<path fill-rule="evenodd" clip-rule="evenodd" d="M4.79171 1.14583C2.77817 1.14583 1.14587 2.77812 1.14587 4.79166C1.14587 6.8052 2.77817 8.43749 4.79171 8.43749C6.80525 8.43749 8.43754 6.8052 8.43754 4.79166C8.43754 2.77812 6.80525 1.14583 4.79171 1.14583ZM0.520874 4.79166C0.520874 2.43295 2.43299 0.520828 4.79171 0.520828C7.15042 0.520828 9.06254 2.43295 9.06254 4.79166C9.06254 7.15038 7.15042 9.06249 4.79171 9.06249C2.43299 9.06249 0.520874 7.15038 0.520874 4.79166ZM8.1124 8.11236C8.23444 7.99032 8.43231 7.99032 8.55434 8.11236L9.38768 8.94569C9.50972 9.06773 9.50972 9.26559 9.38768 9.38763C9.26564 9.50967 9.06778 9.50967 8.94574 9.38763L8.1124 8.5543C7.99036 8.43226 7.99036 8.2344 8.1124 8.11236Z" fill="#828DA9"/>
</g>
<defs>
<clipPath id="clip0_2221_148">
<rect width="10" height="10" fill="white"/>
</clipPath>
</defs>
</svg>
